<svg width="115" height="40" viewBox="0 0 115 40" fill="none" xmlns="http://www.w3.org/2000/svg">
<g clip-path="url(#clip0_4021_521)">
<path d="M0.00195312 40L1.31734 39.5437C1.94474 39.3726 2.40459 38.7452 2.40459 38.0572V1.94279C2.40459 1.25835 1.9483 0.627395 1.31734 0.456287L0.00195312 0H12.6283C19.4868 0 27.5432 5.258 27.5432 19.9982C27.5432 38.0536 18.2285 39.9964 14.2288 39.9964C10.8566 39.9964 8.74271 38.9662 7.43088 37.9396C7.1457 37.7114 6.91756 37.6544 6.74645 37.6544C6.51831 37.6544 6.3472 37.8825 6.3472 38.3959V39.9964H0.00195312V40ZM14.2288 39.1979C22.3422 39.1979 23.6006 27.142 23.6006 19.9982C23.6006 8.17039 19.3728 0.798503 12.6283 0.798503H7.88717C7.03163 0.798503 6.34363 1.48293 6.34363 2.39907V30.7424C6.34363 35.3124 9.37367 39.1979 14.2288 39.1979Z" fill="#262626"/>
<path d="M31.9417 38.0536V1.94279C31.9417 1.25835 31.4854 0.627395 30.8545 0.456287L29.5391 0H38.2228L36.9644 0.456287C36.28 0.627395 35.8772 1.25479 35.8772 1.94279V38.0536C35.8772 38.7381 36.2764 39.369 36.9644 39.5401L38.2228 39.9964H29.5391L30.8545 39.5401C31.4818 39.369 31.9417 38.7416 31.9417 38.0536Z" fill="#262626"/>
<path d="M46.9135 0L44.7996 0.570359C44.3433 0.684431 44.1151 1.14072 44.2292 1.54353L55.0874 35.3694C55.2015 35.7686 55.3726 35.9968 55.5437 35.9968C55.7148 35.9968 55.943 35.7686 56.057 35.3694C61.7713 17.1999 63.0867 6.34168 63.3719 2.17093C63.4289 1.31539 62.9156 0.570359 62.1135 0.342215L61.0299 0H68.2306L56.0036 38.1713C56.1747 38.8557 56.688 39.3726 57.319 39.6578L58.1175 40H52.4032L40.1119 1.65761C39.9408 1.08725 39.5416 0.684431 39.0283 0.456287L37.998 0H46.9099L46.9135 0Z" fill="#262626"/>
<path d="M71.026 38.0536V1.94279C71.026 1.25835 70.5697 0.627395 69.9423 0.456287L68.627 0H77.3107L76.0523 0.456287C75.3679 0.627395 74.9651 1.25479 74.9651 1.94279V38.0536C74.9651 38.7381 75.3643 39.369 76.0523 39.5401L77.3107 39.9964H68.627L69.9423 39.5401C70.5697 39.369 71.026 38.7416 71.026 38.0536Z" fill="#262626"/>
<path d="M78.6266 2.47054e-05H83.4248L97.0813 13.5425C99.4804 15.9416 100.853 19.0286 101.651 22.3403C101.765 22.7966 101.879 23.0247 101.936 23.0247C101.994 23.0247 101.994 22.7966 101.994 22.3973V20.9108C101.994 11.311 99.9367 4.6841 98.7924 1.7111C98.5642 1.14074 98.0509 0.680891 97.477 0.509783L95.6483 -0.00354004H102.792V39.9965H101.191C101.191 32.7957 101.42 23.424 92.1619 14.2269L82.9043 5.08335C82.6762 4.85521 82.448 4.74114 82.2769 4.74114C81.9347 4.74114 81.7636 5.02631 81.7636 5.53964V8.56967C81.7636 27.4842 83.8204 35.4265 84.9647 38.3959C85.1358 38.9092 85.5921 39.3085 86.109 39.4261L88.1088 39.9965H81.0221V1.94281C81.0221 1.25838 80.5658 0.62742 79.9384 0.456312L78.623 2.47054e-05H78.6266Z" fill="#262626"/>
<path d="M108.452 38.0536V1.94279C108.452 1.25835 107.996 0.627395 107.368 0.456287L106.053 0H114.736L113.478 0.456287C112.794 0.627395 112.391 1.25479 112.391 1.94279V38.0536C112.391 38.7381 112.79 39.369 113.478 39.5401L114.736 39.9964H106.053L107.368 39.5401C107.996 39.369 108.452 38.7416 108.452 38.0536Z" fill="#262626"/>
</g>
<defs>
<clipPath id="clip0_4021_521">
<rect width="114.735" height="40" fill="white"/>
</clipPath>
</defs>
</svg>