<svg width="212" height="20" viewBox="0 0 212 20" fill="none" xmlns="http://www.w3.org/2000/svg">
<g id="Vector">
<path d="M9.11575 3.14367C9.01752 3.14367 8.93893 3.22214 8.86035 3.37908C8.80141 3.53602 8.76212 3.65373 8.76212 3.7322V16.7386C8.76212 17.131 8.8407 17.4252 8.97822 17.6214C9.11575 17.8176 9.37114 17.9353 9.72477 17.9941C10.0588 18.053 10.2945 18.0922 10.432 18.1315C10.5696 18.1707 10.6481 18.2884 10.6481 18.5042C10.6481 18.9162 10.4713 19.1123 10.098 19.1123C9.72477 19.1123 9.62654 19.0731 9.0961 19.0143C8.56566 18.9358 7.79946 18.9162 6.81716 18.9162C5.83486 18.9162 5.06867 18.9554 4.53823 19.0143C4.00778 19.0927 3.6738 19.1123 3.53628 19.1123C3.16301 19.1123 2.98619 18.9162 2.98619 18.5238C2.98619 18.1315 3.04513 18.2099 3.18265 18.1511C3.30053 18.0922 3.53628 18.053 3.85062 17.9941C4.24354 17.9157 4.51858 17.798 4.6561 17.641C4.79362 17.4841 4.87221 17.1702 4.87221 16.6994V3.75182C4.87221 3.65373 4.83292 3.5164 4.77398 3.35946C4.71504 3.20252 4.61681 3.12405 4.51858 3.12405H4.16495C3.71309 3.12405 3.32017 3.26138 2.98619 3.53602C2.65221 3.81067 2.31823 4.14417 2.00389 4.53652C1.55203 5.10542 1.2377 5.57625 1.06088 5.94898C0.88407 6.32171 0.667964 6.49827 0.412566 6.49827C0.157168 6.49827 0 6.34133 0 6.04707C0 5.7528 0.058938 5.53701 0.19646 4.98772C0.333982 4.43843 0.510796 3.63411 0.726902 2.55515C0.844778 2.10394 0.943008 1.71159 1.00195 1.37809C1.06088 1.0446 1.21805 0.868038 1.4538 0.868038C1.68956 0.868038 1.63062 0.907273 1.68956 0.966125C1.74849 1.02498 1.78779 1.10345 1.82708 1.20154C1.86637 1.29962 1.90566 1.37809 1.92531 1.45656C1.94495 1.53503 1.98425 1.59389 2.02354 1.6135C2.08248 1.80968 2.16106 1.92738 2.25929 1.98624C2.35752 2.04509 2.49504 2.06471 2.67186 2.06471C2.84867 2.06471 2.92725 2.06471 3.06478 2.06471C3.2023 2.06471 3.39876 2.06471 3.61486 2.06471H9.90159C10.6481 2.06471 11.2375 2.06471 11.6894 2.00585C12.1412 1.96662 12.3966 1.86853 12.4752 1.71159C12.5931 1.71159 12.6717 1.65274 12.7306 1.55465C12.7895 1.45656 12.8485 1.33886 12.9074 1.22115C12.9664 1.10345 13.0253 0.985743 13.1039 0.887655C13.1825 0.789567 13.3003 0.730715 13.4575 0.730715C13.6147 0.730715 13.6933 0.809185 13.7718 0.966125C13.8504 1.12307 13.8897 1.26039 13.8897 1.33886C13.8897 1.75083 13.8504 2.2805 13.7522 2.92788C13.6736 3.57526 13.595 4.39919 13.5361 5.38007C13.4968 5.77242 13.4379 6.0863 13.3593 6.28248C13.2807 6.49827 13.1432 6.59636 12.9271 6.59636C12.711 6.59636 12.4949 6.4198 12.3966 6.0863C12.2984 5.7528 12.1019 5.24275 11.7876 4.57575C11.5715 4.14417 11.3161 3.79105 11.0214 3.5164C10.7267 3.24176 10.3142 3.10444 9.78371 3.10444H9.07645L9.11575 3.14367Z" fill="white"/>
<path d="M19.646 7.67532C19.646 7.83226 19.6853 7.91073 19.7639 7.91073C19.8425 7.91073 19.8621 7.8715 19.9996 7.77341L20.6087 7.36144C20.9426 7.14565 21.3159 6.96909 21.7678 6.83177C22.2 6.69444 22.6518 6.61597 23.1037 6.61597C25.638 6.61597 26.915 7.96958 26.915 10.6572V16.464C26.915 16.8563 26.9347 17.1506 26.9936 17.3664C27.0329 17.5626 27.1704 17.7391 27.3865 17.8568C27.524 17.9353 27.6616 17.9745 27.8187 17.9745C27.9759 17.9745 28.1134 17.9941 28.2509 18.0334C28.3885 18.053 28.5063 18.1119 28.5849 18.1903C28.6635 18.2688 28.7225 18.3865 28.7225 18.5631C28.7225 18.8769 28.5456 19.0535 28.192 19.0535C27.8384 19.0535 27.7402 19.0143 27.3079 18.9554C26.8757 18.8966 26.2864 18.8573 25.5398 18.8573C24.4789 18.8573 23.6734 18.8966 23.1037 18.9554C22.534 19.0143 22.2 19.0535 22.1018 19.0535C21.8071 19.0535 21.6695 18.8966 21.6695 18.5631C21.6695 18.2296 21.7088 18.2688 21.7678 18.1903C21.8267 18.1119 21.9249 18.0726 22.0232 18.053C22.1214 18.0334 22.2393 18.0138 22.3571 18.0138C22.475 18.0138 22.6125 17.9941 22.7304 17.9353C22.9858 17.8372 23.143 17.6803 23.2019 17.4645C23.2609 17.2683 23.2805 16.9348 23.2805 16.4836V11.2653C23.2805 9.26434 22.7108 8.26385 21.591 8.26385C20.4711 8.26385 20.2747 8.55811 20.0193 9.12702C19.7835 9.69593 19.646 10.4806 19.646 11.4615V16.4836C19.646 16.8563 19.646 17.1506 19.7049 17.3664C19.7442 17.5822 19.8425 17.7587 19.9996 17.8764C20.1175 17.9549 20.2354 17.9941 20.3533 18.0138C20.4711 18.0138 20.5694 18.053 20.6676 18.0726C20.7658 18.0726 20.8444 18.1315 20.923 18.2099C20.9819 18.2884 21.0212 18.4061 21.0212 18.5827C21.0212 18.8966 20.9426 19.0731 20.7658 19.0731C20.589 19.0731 20.3533 19.0339 19.8818 18.975C19.4102 18.9162 18.7226 18.8769 17.8386 18.8769C16.9545 18.8769 16.208 18.9162 15.6775 18.975C15.1471 19.0339 14.8131 19.0731 14.6559 19.0731C14.4987 19.0731 14.4202 19.0339 14.3416 18.9358C14.263 18.8377 14.2237 18.7396 14.2237 18.5827C14.2237 18.4257 14.263 18.2884 14.3416 18.2296C14.4202 18.1707 14.5184 18.1315 14.6363 18.0922C14.7541 18.0726 14.872 18.053 15.0095 18.0334C15.1471 18.0334 15.2846 17.9941 15.4221 17.9353C15.6972 17.8176 15.874 17.641 15.9329 17.4449C15.9918 17.2487 16.0311 16.9152 16.0311 16.5032V4.32072C16.0311 4.00684 15.9918 3.7322 15.9329 3.53602C15.874 3.33985 15.7364 3.18291 15.54 3.04558C15.4221 2.96711 15.3042 2.92788 15.1667 2.90826C15.0292 2.88864 14.9113 2.84941 14.7934 2.81017C14.6952 2.77094 14.597 2.7317 14.5184 2.67285C14.4398 2.614 14.4005 2.51591 14.4005 2.35897C14.4005 2.06471 14.538 1.86853 14.7934 1.79006C15.0488 1.71159 15.4418 1.63312 15.9526 1.55465C16.4634 1.45656 16.8956 1.33886 17.2885 1.20154C17.6618 1.08383 17.9957 0.946508 18.2511 0.828803C18.5065 0.711097 18.7226 0.593392 18.8798 0.514922C19.037 0.436452 19.1549 0.397217 19.2531 0.397217C19.5674 0.397217 19.7246 0.593392 19.7246 1.00536C19.7246 1.41733 19.7246 1.43695 19.7049 1.71159C19.6853 1.98624 19.6853 2.2805 19.6853 2.59438V7.6557L19.646 7.67532Z" fill="white"/>
<path d="M33.7911 11.7558C33.4768 11.7558 33.3196 11.9127 33.3196 12.2462V12.9524C33.3196 13.6587 33.4178 14.306 33.6143 14.8946C33.8108 15.4831 34.0858 15.9735 34.4394 16.3855C34.7931 16.7975 35.2056 17.1114 35.6968 17.3468C36.1879 17.5626 36.7184 17.6803 37.2685 17.6803C37.8186 17.6803 38.1329 17.6018 38.4472 17.4645C38.7616 17.3271 39.0562 17.1702 39.2724 16.9937C39.5081 16.8171 39.7046 16.6602 39.8617 16.5228C40.0189 16.3855 40.1564 16.307 40.2939 16.307C40.4315 16.307 40.5101 16.3463 40.6083 16.4444C40.6869 16.5424 40.7458 16.6405 40.7458 16.7975C40.7458 16.9544 40.6279 17.1898 40.3725 17.5037C40.1171 17.8176 39.7635 18.1315 39.3116 18.4257C38.8598 18.7396 38.3097 18.9946 37.681 19.23C37.0524 19.4655 36.3451 19.5832 35.5789 19.5832C34.8127 19.5832 33.8894 19.4262 33.1428 19.1123C32.3963 18.7985 31.7479 18.3669 31.2175 17.7784C30.6871 17.2094 30.2548 16.5228 29.9601 15.7185C29.6655 14.9142 29.5083 14.051 29.5083 13.1094C29.5083 12.1677 29.6655 11.2653 29.9798 10.461C30.2941 9.65669 30.7263 8.9897 31.2764 8.42079C31.8265 7.85188 32.4945 7.42029 33.2803 7.10641C34.0662 6.79253 34.9306 6.63559 35.8932 6.63559C36.8559 6.63559 37.3274 6.7533 37.9364 6.98871C38.5455 7.22412 39.0562 7.538 39.4885 7.94997C39.9207 8.36194 40.235 8.81314 40.4708 9.32319C40.6869 9.83325 40.8047 10.3825 40.8047 10.9514C40.8047 11.5204 40.7262 11.4615 40.5493 11.5792C40.3922 11.6969 40.1171 11.7558 39.7439 11.7558H33.7911ZM37.0131 10.4022C37.3863 10.2256 37.5632 9.87249 37.5632 9.38205C37.5632 8.89161 37.406 8.42079 37.072 8.10691C36.7577 7.79303 36.3451 7.63609 35.854 7.63609C35.3628 7.63609 34.7931 7.83226 34.3412 8.22461C33.909 8.61696 33.634 9.20549 33.5357 9.99019L33.4768 10.4414V10.5002C33.4768 10.618 33.575 10.6768 33.7911 10.6768H35.3039C36.0504 10.6768 36.6005 10.5787 36.9738 10.4022H37.0131Z" fill="white"/>
<path d="M54.8123 8.95046C54.8123 9.20549 54.9302 9.32319 55.166 9.32319H60.0578C60.2936 9.32319 60.4115 9.20549 60.4115 8.95046V4.5169C60.4115 4.12455 60.3329 3.83029 60.1953 3.65373C60.0578 3.45755 59.8024 3.33985 59.4488 3.26138C59.1148 3.20252 58.8791 3.16329 58.7415 3.12405C58.604 3.08482 58.5254 2.9475 58.5254 2.71209C58.5254 2.31974 58.7022 2.12356 59.0755 2.12356C59.4488 2.12356 59.5274 2.16279 60.0578 2.22165C60.5883 2.2805 61.3545 2.31974 62.3564 2.31974C63.3584 2.31974 64.1245 2.2805 64.655 2.22165C65.1854 2.16279 65.5194 2.12356 65.6373 2.12356C66.0106 2.12356 66.1874 2.31974 66.1874 2.71209C66.1874 3.10444 66.1284 3.02597 65.9909 3.08482C65.873 3.14367 65.6373 3.18291 65.323 3.24176C64.9497 3.32023 64.6943 3.43793 64.5371 3.59487C64.3799 3.75181 64.3014 4.0657 64.3014 4.53652V16.6798C64.3014 17.0721 64.3603 17.3664 64.4782 17.5429C64.596 17.7391 64.8122 17.8568 65.1461 17.9353C65.4998 18.0138 65.7552 18.053 65.9123 18.0922C66.0695 18.1315 66.1677 18.2688 66.1677 18.5042C66.1677 18.8966 65.9909 19.0927 65.6176 19.0927C65.2444 19.0927 65.1461 19.0535 64.6157 18.9946C64.0853 18.9162 63.3191 18.8966 62.3368 18.8966C61.3545 18.8966 60.5883 18.9358 60.0578 18.9946C59.5274 19.0731 59.1934 19.0927 59.0559 19.0927C58.6826 19.0927 58.5058 18.8966 58.5058 18.4846C58.5058 18.0726 58.5647 18.1707 58.663 18.1315C58.7612 18.0922 58.9773 18.053 59.272 18.0138C59.7042 17.9549 59.9989 17.8568 60.1561 17.6803C60.3132 17.5037 60.4115 17.1898 60.4115 16.719V10.9318C60.4115 10.6768 60.2936 10.5591 60.0578 10.5591H55.166C54.9302 10.5591 54.8123 10.6768 54.8123 10.9318V16.719C54.8123 17.1114 54.8909 17.4056 55.0285 17.6018C55.166 17.798 55.4214 17.9157 55.775 17.9745C56.109 18.0334 56.3447 18.0726 56.4823 18.1118C56.6198 18.1511 56.6984 18.2688 56.6984 18.4846C56.6984 18.8966 56.5215 19.0927 56.1483 19.0927C55.775 19.0927 55.6768 19.0535 55.1463 18.9946C54.6159 18.9162 53.8497 18.8966 52.8674 18.8966C51.8851 18.8966 51.1189 18.9358 50.5885 18.9946C50.058 19.0731 49.724 19.0927 49.5865 19.0927C49.2132 19.0927 49.0364 18.8966 49.0364 18.5042C49.0364 18.1119 49.0954 18.1903 49.2329 18.1315C49.3508 18.0726 49.5865 18.0334 49.9008 17.9745C50.2938 17.8961 50.5688 17.7784 50.7063 17.6214C50.8439 17.4645 50.9224 17.1506 50.9224 16.6798V4.55613C50.9224 4.16378 50.8635 3.86952 50.7456 3.69296C50.6277 3.49679 50.4116 3.37908 50.0777 3.30061C49.7437 3.22214 49.4883 3.16329 49.3115 3.12405C49.1347 3.08482 49.0561 2.9475 49.0561 2.71209C49.0561 2.33935 49.2329 2.14318 49.6062 2.14318C49.9794 2.14318 50.0777 2.18241 50.6081 2.24126C51.1385 2.30012 51.9047 2.33935 52.887 2.33935C53.8693 2.33935 54.6552 2.30012 55.1856 2.24126C55.7161 2.18241 56.05 2.14318 56.1679 2.14318C56.5412 2.14318 56.718 2.33935 56.718 2.7317C56.718 3.12405 56.6591 3.04558 56.5608 3.10444C56.4626 3.16329 56.2465 3.20252 55.9518 3.24176C55.5 3.32023 55.2053 3.43793 55.0481 3.59487C54.8909 3.77143 54.8123 4.08531 54.8123 4.55613V8.95046Z" fill="white"/>
<path d="M76.5998 7.0868C77.4052 7.40068 78.0928 7.85188 78.6429 8.42079C79.193 8.9897 79.6056 9.67631 79.9003 10.4806C80.195 11.2849 80.3325 12.1677 80.3325 13.129C80.3325 14.0903 80.1753 14.973 79.8806 15.7577C79.586 16.5424 79.1341 17.2094 78.5644 17.7783C77.9946 18.3473 77.2874 18.7788 76.4622 19.0731C75.6371 19.3674 74.6941 19.5243 73.6725 19.5243C72.6509 19.5243 71.8847 19.3674 71.1382 19.0535C70.3916 18.7396 69.7433 18.308 69.1932 17.7195C68.6431 17.1506 68.2306 16.464 67.9359 15.6597C67.6412 14.8553 67.5037 13.9922 67.5037 13.0505C67.5037 12.1089 67.6608 11.2065 67.9752 10.4022C68.2895 9.59784 68.7217 8.93084 69.2718 8.36193C69.8219 7.79303 70.5095 7.36144 71.2953 7.04756C72.0812 6.73368 72.9456 6.57674 73.8886 6.57674C74.8316 6.57674 75.8139 6.73368 76.6194 7.04756L76.5998 7.0868ZM71.9044 8.83276C71.4525 9.63708 71.2168 10.8337 71.2168 12.3835C71.2168 13.9333 71.4918 15.8951 72.0419 16.9544C72.592 18.0138 73.2796 18.5434 74.0851 18.5434C74.8906 18.5434 75.421 18.1315 75.8728 17.3075C76.3247 16.4836 76.5408 15.2869 76.5408 13.7371C76.5408 12.1874 76.2658 10.2845 75.7353 9.20549C75.2049 8.12652 74.5173 7.59685 73.6922 7.59685C72.867 7.59685 72.3562 8.00882 71.8847 8.81314L71.9044 8.83276Z" fill="white"/>
<path d="M86.4817 14.9142C86.4817 16.8956 87.0514 17.8961 88.2105 17.8961C89.3697 17.8961 89.5072 17.6214 89.7429 17.0525C89.9787 16.4836 90.1162 15.6989 90.1162 14.6984V9.67631C90.1162 9.30358 90.0966 9.00931 90.0573 8.79352C90.018 8.57773 89.9001 8.40117 89.684 8.28347C89.5465 8.205 89.409 8.16576 89.2518 8.14614C89.0946 8.14614 88.9571 8.10691 88.8196 8.08729C88.6821 8.08729 88.5642 8.02844 88.4856 7.94997C88.407 7.8715 88.3481 7.75379 88.3481 7.538C88.3481 7.32221 88.3874 7.2045 88.4659 7.14565C88.5445 7.0868 88.6624 7.04756 88.8196 7.04756C88.9767 7.04756 89.1143 7.04756 89.4679 7.10641C89.8215 7.14565 90.3127 7.16527 90.961 7.16527C91.6093 7.16527 92.2183 7.14565 92.5916 7.10641C92.9649 7.06718 93.2006 7.04756 93.2989 7.04756C93.515 7.04756 93.6328 7.10641 93.6918 7.22412C93.7311 7.34182 93.7704 7.57723 93.7704 7.96958V16.0912C93.7704 16.3659 93.7704 16.5817 93.8293 16.7386C93.8686 16.9152 93.9668 17.0525 94.1436 17.1506C94.2615 17.2291 94.3794 17.2683 94.5169 17.2879C94.6544 17.2879 94.7723 17.3271 94.8902 17.3468C95.0081 17.3664 95.1063 17.4056 95.1849 17.4645C95.2635 17.5233 95.3027 17.6214 95.3027 17.7587C95.3027 18.0138 95.2045 18.1707 94.9884 18.2492C94.7723 18.3276 94.4187 18.4257 93.9275 18.5238C92.9452 18.7592 92.2773 18.975 91.904 19.1516C91.5307 19.3478 91.3146 19.4262 91.236 19.4262C91.0592 19.4262 90.9413 19.3674 90.8627 19.2693C90.8038 19.1712 90.7449 18.9946 90.7056 18.7592L90.5877 17.7195H90.4502C89.9394 18.2884 89.3697 18.7396 88.7017 19.0535C88.0337 19.3674 87.3658 19.5243 86.6781 19.5243C85.9905 19.5243 85.1065 19.4066 84.5957 19.1516C84.0849 18.8966 83.7116 18.5434 83.4366 18.0726C83.1812 17.6018 83.0043 17.0525 82.9454 16.4051C82.8865 15.7577 82.8472 15.0319 82.8472 14.2472V9.65669C82.8472 9.26434 82.8275 8.97008 82.7882 8.75429C82.749 8.55811 82.6311 8.38155 82.4346 8.26385C82.3167 8.18538 82.1989 8.14614 82.0613 8.14614C81.9435 8.14614 81.8059 8.12653 81.6881 8.08729C81.5702 8.06767 81.472 8.00882 81.3934 7.93035C81.3148 7.85188 81.2755 7.73417 81.2755 7.55762C81.2755 7.38106 81.3148 7.22412 81.3934 7.16527C81.472 7.10641 81.5898 7.06718 81.7666 7.06718C81.9435 7.06718 82.1596 7.06718 82.4739 7.10641C82.7882 7.12603 83.2008 7.14565 83.7116 7.14565C84.2224 7.14565 84.9296 7.12603 85.3029 7.0868C85.6762 7.04756 85.9316 7.02794 86.0102 7.02794C86.2263 7.02794 86.3442 7.06718 86.3835 7.16527C86.4227 7.26335 86.4424 7.43991 86.4424 7.73417V14.8946L86.4817 14.9142Z" fill="white"/>
<path d="M103.043 6.7533C103.554 6.85139 104.006 6.94947 104.379 7.10641C104.654 7.2045 104.811 7.30259 104.87 7.42029C104.929 7.538 104.949 7.73417 104.949 8.00882C104.949 8.28347 104.949 8.57773 104.949 8.79352C104.949 9.00931 104.949 9.18587 104.949 9.30358C104.949 9.73516 104.792 9.95096 104.458 9.95096C104.124 9.95096 104.045 9.83325 103.888 9.57822C103.731 9.32319 103.534 9.04855 103.318 8.75429C103.102 8.46002 102.847 8.16576 102.552 7.93035C102.257 7.67532 101.865 7.55762 101.393 7.55762C100.922 7.55762 100.371 7.69494 100.037 7.94997C99.7034 8.205 99.5463 8.53849 99.5463 8.93084C99.5463 9.32319 99.6249 9.42128 99.7624 9.59784C99.8999 9.7744 100.096 9.95096 100.352 10.0883C100.588 10.2452 100.902 10.3825 101.236 10.5395C101.589 10.6768 101.963 10.8337 102.375 10.9907C102.925 11.2065 103.397 11.4419 103.809 11.6969C104.222 11.9519 104.556 12.2266 104.831 12.5209C105.106 12.8347 105.322 13.1682 105.46 13.5802C105.597 13.9726 105.676 14.4434 105.676 14.9534C105.676 15.4635 105.558 16.2482 105.303 16.8171C105.047 17.386 104.674 17.8568 104.202 18.2688C103.731 18.6808 103.161 18.9946 102.493 19.23C101.825 19.4655 101.079 19.5832 100.273 19.5832C99.4677 19.5832 98.23 19.4066 97.5424 19.0731C96.8548 18.7396 96.5012 18.308 96.5012 17.7784C96.5012 16.8171 96.5404 16.1109 96.619 15.6989C96.6976 15.2869 96.8351 15.0711 97.0512 15.0711C97.2673 15.0711 97.3263 15.13 97.4245 15.2281C97.5031 15.3262 97.6013 15.4635 97.6799 15.64C97.7585 15.8166 97.8371 16.0128 97.9353 16.2482C98.0139 16.4836 98.1514 16.7386 98.3086 16.9937C98.9176 18.0726 99.7427 18.6023 100.823 18.6023C101.904 18.6023 101.963 18.4257 102.375 18.0922C102.788 17.7587 102.984 17.3468 102.984 16.8956C102.984 16.4444 102.945 16.3659 102.866 16.1697C102.788 15.9735 102.67 15.797 102.493 15.64C102.316 15.4831 102.1 15.3262 101.825 15.1888C101.55 15.0515 101.236 14.8946 100.863 14.7376C100.293 14.463 99.7624 14.2276 99.2516 13.9922C98.7408 13.7568 98.3086 13.5017 97.9157 13.2075C97.5424 12.9132 97.2281 12.5601 97.012 12.1677C96.7958 11.7754 96.678 11.2653 96.678 10.6376C96.678 9.46052 97.1102 8.51888 97.9746 7.77341C98.839 7.04756 100.018 6.67483 101.511 6.67483C103.004 6.67483 102.591 6.71406 103.102 6.81215L103.043 6.7533Z" fill="white"/>
<path d="M111.354 11.7558C111.039 11.7558 110.882 11.9127 110.882 12.2462V12.9524C110.882 13.6587 110.98 14.306 111.177 14.8946C111.373 15.4831 111.648 15.9735 112.002 16.3855C112.355 16.7975 112.768 17.1114 113.259 17.3468C113.75 17.5626 114.281 17.6803 114.831 17.6803C115.381 17.6803 115.695 17.6018 116.01 17.4645C116.324 17.3271 116.619 17.1702 116.835 16.9937C117.071 16.8171 117.267 16.6602 117.424 16.5228C117.581 16.3855 117.719 16.307 117.856 16.307C117.994 16.307 118.072 16.3463 118.171 16.4444C118.249 16.5424 118.308 16.6405 118.308 16.7975C118.308 16.9544 118.19 17.1898 117.935 17.5037C117.68 17.8176 117.326 18.1315 116.874 18.4257C116.422 18.7396 115.872 18.9946 115.243 19.23C114.615 19.4655 113.908 19.5832 113.141 19.5832C112.375 19.5832 111.452 19.4262 110.705 19.1123C109.959 18.7985 109.31 18.3669 108.78 17.7784C108.249 17.2094 107.817 16.5228 107.523 15.7185C107.228 14.9142 107.071 14.051 107.071 13.1094C107.071 12.1677 107.228 11.2653 107.542 10.461C107.857 9.65669 108.289 8.9897 108.839 8.42079C109.389 7.85188 110.057 7.42029 110.843 7.10641C111.629 6.79253 112.493 6.63559 113.456 6.63559C114.418 6.63559 114.89 6.7533 115.499 6.98871C116.108 7.22412 116.619 7.538 117.051 7.94997C117.483 8.36194 117.797 8.81314 118.033 9.32319C118.249 9.83325 118.367 10.3825 118.367 10.9514C118.367 11.5204 118.289 11.4615 118.112 11.5792C117.955 11.6969 117.68 11.7558 117.306 11.7558H111.354ZM114.575 10.4022C114.949 10.2256 115.126 9.87249 115.126 9.38205C115.126 8.89161 114.968 8.42079 114.634 8.10691C114.32 7.79303 113.908 7.63609 113.416 7.63609C112.925 7.63609 112.355 7.83226 111.904 8.22461C111.452 8.61696 111.196 9.20549 111.098 9.99019L111.039 10.4414V10.5002C111.039 10.618 111.137 10.6768 111.354 10.6768H112.866C113.613 10.6768 114.163 10.5787 114.536 10.4022H114.575Z" fill="white"/>
<path d="M135.695 7.0868C136.5 7.40068 137.188 7.85188 137.738 8.42079C138.288 8.9897 138.701 9.67631 138.995 10.4806C139.29 11.2849 139.428 12.1677 139.428 13.129C139.428 14.0903 139.271 14.973 138.976 15.7577C138.681 16.5424 138.229 17.2094 137.66 17.7783C137.09 18.3473 136.383 18.7788 135.557 19.0731C134.732 19.3674 133.789 19.5243 132.768 19.5243C131.746 19.5243 130.98 19.3674 130.233 19.0535C129.487 18.7396 128.838 18.308 128.288 17.7195C127.738 17.1506 127.326 16.464 127.031 15.6597C126.736 14.8553 126.599 13.9922 126.599 13.0505C126.599 12.1089 126.756 11.2065 127.07 10.4022C127.385 9.59784 127.817 8.93084 128.367 8.36193C128.917 7.79303 129.605 7.36144 130.391 7.04756C131.176 6.73368 132.041 6.57674 132.984 6.57674C133.927 6.57674 134.909 6.73368 135.715 7.04756L135.695 7.0868ZM131 8.83276C130.548 9.63708 130.312 10.8337 130.312 12.3835C130.312 13.9333 130.587 15.8951 131.137 16.9544C131.687 18.0138 132.375 18.5434 133.18 18.5434C133.986 18.5434 134.516 18.1315 134.968 17.3075C135.42 16.4836 135.636 15.2869 135.636 13.7371C135.636 12.1874 135.361 10.2845 134.831 9.20549C134.3 8.12652 133.612 7.59685 132.787 7.59685C131.962 7.59685 131.451 8.00882 130.98 8.81314L131 8.83276Z" fill="white"/>
<path d="M145.675 6.7533C145.675 7.00833 145.793 7.12603 146.029 7.12603H148.111C148.249 7.12603 148.327 7.14565 148.367 7.18488C148.386 7.22412 148.406 7.32221 148.406 7.45953V8.04806C148.406 8.28347 148.327 8.40117 148.151 8.40117H146.048C145.813 8.40117 145.695 8.51888 145.695 8.7739V16.4444C145.695 16.8367 145.734 17.131 145.813 17.3468C145.891 17.5626 146.029 17.7195 146.245 17.8372C146.422 17.9353 146.598 17.9745 146.795 17.9941C146.972 17.9941 147.149 18.0138 147.306 18.0334C147.463 18.0334 147.6 18.0922 147.699 18.1511C147.797 18.2099 147.856 18.3473 147.856 18.5434C147.856 18.8769 147.679 19.0535 147.325 19.0535C146.972 19.0535 146.834 19.0143 146.264 18.9554C145.695 18.8769 144.889 18.8573 143.868 18.8573C142.846 18.8573 142.237 18.8966 141.707 18.9554C141.176 19.0143 140.842 19.0535 140.685 19.0535C140.528 19.0535 140.449 19.0143 140.371 18.9162C140.292 18.8181 140.253 18.72 140.253 18.5631C140.253 18.4061 140.292 18.2688 140.371 18.2099C140.449 18.1511 140.548 18.1119 140.665 18.0726C140.783 18.0334 140.921 18.0334 141.058 18.0138C141.196 17.9941 141.333 17.9745 141.451 17.9157C141.726 17.798 141.903 17.6214 141.962 17.4252C142.021 17.2291 142.06 16.8956 142.06 16.4836V8.69543C142.06 8.44041 141.942 8.3227 141.707 8.3227H140.881C140.724 8.3227 140.606 8.26385 140.508 8.18538C140.41 8.08729 140.371 7.9892 140.371 7.8715C140.371 7.71456 140.43 7.57723 140.548 7.49876C140.665 7.42029 140.823 7.32221 141.039 7.22412L141.707 6.91024C141.844 6.83177 141.942 6.79253 142.021 6.7533C142.08 6.71406 142.139 6.61597 142.158 6.45903L142.276 5.38007C142.355 4.59537 142.551 3.88914 142.866 3.28099C143.18 2.67285 143.573 2.14318 144.044 1.73121C144.516 1.31924 145.046 0.985743 145.675 0.76995C146.284 0.554157 146.952 0.436452 147.659 0.436452C148.367 0.436452 149.231 0.554157 149.722 0.809185C150.213 1.06421 150.469 1.33886 150.469 1.63312C150.469 1.92738 150.41 2.22165 150.312 2.53553C150.213 2.84941 150.076 3.16329 149.899 3.43793C149.742 3.71258 149.565 3.94799 149.388 4.12455C149.211 4.30111 149.054 4.39919 148.917 4.39919C148.661 4.39919 148.465 4.24225 148.347 3.92837C148.229 3.61449 148.052 3.22214 147.836 2.77094C147.679 2.39821 147.522 2.12356 147.345 1.947C147.168 1.77044 147.011 1.67236 146.874 1.67236C146.107 1.67236 145.734 3.02597 145.734 5.71357V6.79253L145.675 6.7533Z" fill="white"/>
<path d="M168.189 15.6793C168.602 16.8563 169.054 17.5822 169.565 17.8176C169.683 17.8764 169.82 17.9157 169.958 17.9353C170.095 17.9549 170.233 17.9941 170.37 18.0334C170.488 18.0726 170.606 18.1315 170.684 18.2099C170.763 18.2884 170.802 18.4061 170.802 18.5631C170.802 18.72 170.743 18.8966 170.606 18.9554C170.488 19.0143 170.272 19.0535 169.997 19.0535C169.722 19.0535 169.427 19.0143 168.936 18.9554C168.445 18.8966 167.777 18.8573 166.952 18.8573C166.127 18.8573 165.557 18.8965 164.987 18.975C164.417 19.0535 163.946 19.0927 163.573 19.0927C163.199 19.0927 162.905 18.9162 162.905 18.5631C162.905 18.2099 162.983 18.1511 163.16 18.0726C163.317 17.9941 163.494 17.9549 163.69 17.9157C163.867 17.8764 164.044 17.8176 164.221 17.7587C164.378 17.6803 164.476 17.5233 164.476 17.2683C164.476 17.0133 164.457 16.974 164.398 16.7779L163.396 13.796C163.298 13.5017 163.081 13.3252 162.728 13.2663C162.374 13.2271 161.726 13.2075 160.803 13.2075C159.879 13.2075 159.899 13.2075 159.584 13.2075C159.29 13.2075 159.054 13.2467 158.897 13.3056C158.74 13.3644 158.622 13.4429 158.563 13.541C158.504 13.6391 158.425 13.7764 158.366 13.9529C157.993 15.1496 157.816 15.9539 157.816 16.3855C157.816 16.8171 157.875 16.9937 158.013 17.1702C158.131 17.3664 158.425 17.5233 158.838 17.6999C159.231 17.8372 159.545 17.9549 159.781 18.0138C160.017 18.0726 160.154 18.2492 160.154 18.5434C160.154 18.8377 159.958 19.0731 159.545 19.0731C159.133 19.0731 159.211 19.0339 158.779 18.975C158.347 18.9162 157.718 18.8769 156.913 18.8769C156.107 18.8769 155.812 18.9162 155.498 18.975C155.184 19.0339 154.987 19.0731 154.909 19.0731C154.516 19.0731 154.319 18.8966 154.319 18.5631C154.319 18.2296 154.418 18.0726 154.634 18.0138C154.83 17.9549 155.086 17.8568 155.341 17.7391C155.577 17.641 155.773 17.4449 155.93 17.2094C156.087 16.9544 156.245 16.6209 156.402 16.2089L161.254 2.67285C161.431 2.20203 161.588 1.92738 161.746 1.80968C161.903 1.69197 162.138 1.63312 162.453 1.63312C162.767 1.63312 163.042 1.69197 163.14 1.8293C163.239 1.947 163.376 2.24126 163.533 2.71209L168.189 15.6597V15.6793ZM160.842 6.96909C160.763 6.96909 160.704 7.06718 160.645 7.28297L159.211 11.6577C159.172 11.7558 159.152 11.8342 159.152 11.8539C159.152 11.9519 159.231 11.9912 159.408 11.9912H162.296C162.492 11.9912 162.59 11.9323 162.59 11.8342C162.59 11.7362 162.59 11.6184 162.571 11.54L161.019 7.28297C160.96 7.0868 160.901 6.98871 160.842 6.98871V6.96909Z" fill="white"/>
<path d="M177.128 6.7533C177.639 6.85139 178.091 6.94947 178.464 7.10641C178.739 7.2045 178.896 7.30259 178.955 7.42029C179.014 7.538 179.034 7.73417 179.034 8.00882C179.034 8.28347 179.034 8.57773 179.034 8.79352C179.034 9.00931 179.034 9.18587 179.034 9.30358C179.034 9.73516 178.877 9.95096 178.543 9.95096C178.209 9.95096 178.13 9.83325 177.973 9.57822C177.816 9.32319 177.619 9.04855 177.403 8.75429C177.187 8.46002 176.932 8.16576 176.637 7.93035C176.342 7.67532 175.95 7.55762 175.478 7.55762C175.007 7.55762 174.456 7.69494 174.123 7.94997C173.789 8.205 173.631 8.53849 173.631 8.93084C173.631 9.32319 173.71 9.42128 173.847 9.59784C173.985 9.7744 174.181 9.95096 174.437 10.0883C174.673 10.2452 174.987 10.3825 175.321 10.5395C175.675 10.6768 176.048 10.8337 176.46 10.9907C177.01 11.2065 177.482 11.4419 177.895 11.6969C178.307 11.9519 178.641 12.2266 178.916 12.5209C179.191 12.8347 179.407 13.1682 179.545 13.5802C179.682 13.9726 179.761 14.4434 179.761 14.9534C179.761 15.4635 179.643 16.2482 179.388 16.8171C179.132 17.386 178.759 17.8568 178.287 18.2688C177.816 18.6808 177.246 18.9946 176.578 19.23C175.91 19.4655 175.164 19.5832 174.358 19.5832C173.553 19.5832 172.315 19.4066 171.627 19.0731C170.94 18.7396 170.586 18.308 170.586 17.7784C170.586 16.8171 170.626 16.1109 170.704 15.6989C170.783 15.2869 170.92 15.0711 171.136 15.0711C171.352 15.0711 171.411 15.13 171.51 15.2281C171.588 15.3262 171.686 15.4635 171.765 15.64C171.844 15.8166 171.922 16.0128 172.02 16.2482C172.099 16.4836 172.236 16.7386 172.394 16.9937C173.003 18.0726 173.828 18.6023 174.908 18.6023C175.989 18.6023 176.048 18.4257 176.46 18.0922C176.873 17.7587 177.069 17.3468 177.069 16.8956C177.069 16.4444 177.03 16.3659 176.952 16.1697C176.873 15.9735 176.755 15.797 176.578 15.64C176.401 15.4831 176.185 15.3262 175.91 15.1888C175.635 15.0515 175.321 14.8946 174.948 14.7376C174.378 14.463 173.847 14.2276 173.337 13.9922C172.826 13.7568 172.394 13.5017 172.001 13.2075C171.627 12.9132 171.313 12.5601 171.097 12.1677C170.881 11.7754 170.763 11.2653 170.763 10.6376C170.763 9.46052 171.195 8.51888 172.06 7.77341C172.924 7.04756 174.103 6.67483 175.596 6.67483C177.089 6.67483 176.676 6.71406 177.187 6.81215L177.128 6.7533Z" fill="white"/>
<path d="M186.048 6.7533C186.048 7.00833 186.146 7.12603 186.362 7.12603H188.228C188.425 7.12603 188.543 7.16527 188.582 7.22412C188.621 7.28297 188.641 7.38106 188.641 7.538V7.94997C188.641 8.14614 188.621 8.28347 188.582 8.38155C188.543 8.47964 188.425 8.51888 188.228 8.51888H186.362C186.146 8.51888 186.048 8.63658 186.048 8.89161L185.969 14.4238V14.9142C185.969 15.8166 186.028 16.5032 186.126 16.9152C186.224 17.3468 186.441 17.5626 186.755 17.5626C187.069 17.5626 187.03 17.5233 187.187 17.4645C187.325 17.386 187.482 17.3075 187.619 17.2291C187.757 17.131 187.875 17.0525 187.993 16.9937C188.091 16.9152 188.189 16.8956 188.268 16.8956C188.346 16.8956 188.464 16.9544 188.582 17.0721C188.7 17.1898 188.759 17.3075 188.759 17.4056C188.759 17.5822 188.661 17.798 188.444 18.053C188.228 18.308 187.953 18.5434 187.6 18.7788C187.246 19.0143 186.853 19.2104 186.401 19.3674C185.949 19.5243 185.498 19.6028 185.026 19.6028C184.024 19.6028 183.336 19.3085 182.944 18.7396C182.551 18.1511 182.354 17.2683 182.354 16.0716V15.0711L182.472 9.30358C182.472 9.04855 182.452 8.85237 182.413 8.69543C182.374 8.53849 182.256 8.46002 182.059 8.46002H181.529C181.077 8.46002 180.861 8.3227 180.861 8.02844C180.861 7.73417 180.94 7.73417 181.077 7.59685C181.215 7.47915 181.411 7.34182 181.647 7.2045C181.883 7.06718 182.158 6.91024 182.472 6.71406C182.786 6.51789 183.101 6.26286 183.435 5.92936C183.71 5.65472 183.946 5.39969 184.162 5.14466C184.358 4.88963 184.555 4.67384 184.712 4.45805C184.869 4.26187 185.026 4.08531 185.164 3.96761C185.301 3.8499 185.439 3.79105 185.596 3.79105C185.753 3.79105 185.949 3.8499 185.989 3.98723C186.028 4.10493 186.067 4.30111 186.067 4.5169V6.77292L186.048 6.7533Z" fill="white"/>
<path d="M194.024 11.7558C193.71 11.7558 193.552 11.9127 193.552 12.2462V12.9524C193.552 13.6587 193.651 14.306 193.847 14.8946C194.044 15.4831 194.319 15.9735 194.672 16.3855C195.026 16.7975 195.438 17.1114 195.93 17.3468C196.421 17.5626 196.951 17.6803 197.501 17.6803C198.051 17.6803 198.366 17.6018 198.68 17.4645C198.994 17.3271 199.289 17.1702 199.505 16.9937C199.741 16.8171 199.937 16.6602 200.095 16.5228C200.252 16.3855 200.389 16.307 200.527 16.307C200.664 16.307 200.743 16.3463 200.841 16.4444C200.92 16.5424 200.979 16.6405 200.979 16.7975C200.979 16.9544 200.861 17.1898 200.605 17.5037C200.35 17.8176 199.996 18.1315 199.544 18.4257C199.093 18.7396 198.542 18.9946 197.914 19.23C197.285 19.4655 196.578 19.5832 195.812 19.5832C195.045 19.5832 194.122 19.4262 193.376 19.1123C192.629 18.7985 191.981 18.3669 191.45 17.7784C190.92 17.2094 190.488 16.5228 190.193 15.7185C189.898 14.9142 189.741 14.051 189.741 13.1094C189.741 12.1677 189.898 11.2653 190.213 10.461C190.527 9.65669 190.959 8.9897 191.509 8.42079C192.059 7.85188 192.727 7.42029 193.513 7.10641C194.299 6.79253 195.163 6.63559 196.126 6.63559C197.089 6.63559 197.56 6.7533 198.169 6.98871C198.778 7.22412 199.289 7.538 199.721 7.94997C200.153 8.36194 200.468 8.81314 200.704 9.32319C200.92 9.83325 201.038 10.3825 201.038 10.9514C201.038 11.5204 200.959 11.4615 200.782 11.5792C200.625 11.6969 200.35 11.7558 199.977 11.7558H194.024ZM197.246 10.4022C197.619 10.2256 197.796 9.87249 197.796 9.38205C197.796 8.89161 197.639 8.42079 197.305 8.10691C196.99 7.79303 196.578 7.63609 196.087 7.63609C195.596 7.63609 195.026 7.83226 194.574 8.22461C194.122 8.61696 193.867 9.20549 193.769 9.99019L193.71 10.4414V10.5002C193.71 10.618 193.808 10.6768 194.024 10.6768H195.537C196.283 10.6768 196.833 10.5787 197.207 10.4022H197.246Z" fill="white"/>
<path d="M207.226 8.10691C207.226 8.28347 207.246 8.38155 207.305 8.38155C207.364 8.38155 207.442 8.3227 207.54 8.22461L207.796 7.91073C208.444 7.16527 209.151 6.79253 209.898 6.79253C210.644 6.79253 211.037 6.98871 211.411 7.36144C211.804 7.73417 212 8.22461 212 8.83276C212 9.4409 211.823 10.0294 211.47 10.4022C211.116 10.7749 210.684 10.9514 210.153 10.9514C209.623 10.9514 209.505 10.873 209.289 10.716C209.073 10.5591 208.876 10.3825 208.719 10.1864C208.562 9.99019 208.424 9.83325 208.287 9.65669C208.169 9.49975 208.032 9.42128 207.894 9.42128C207.501 9.42128 207.305 9.87249 207.305 10.7553V16.5032C207.305 16.8956 207.324 17.1898 207.383 17.4056C207.422 17.6018 207.56 17.7784 207.776 17.8961C207.914 17.9941 208.051 18.0334 208.208 18.053C208.365 18.053 208.503 18.0726 208.641 18.0922C208.758 18.0922 208.876 18.1511 208.955 18.2099C209.033 18.2688 209.092 18.4061 209.092 18.6023C209.092 18.9162 208.994 19.0927 208.778 19.0927C208.562 19.0927 208.267 19.0535 207.717 18.9946C207.167 18.9358 206.421 18.8966 205.497 18.8966C204.574 18.8966 203.827 18.9358 203.297 18.9946C202.766 19.0535 202.432 19.0927 202.295 19.0927C202.157 19.0927 202.059 19.0535 201.981 18.9554C201.902 18.8573 201.863 18.7592 201.863 18.6023C201.863 18.4453 201.902 18.308 201.981 18.2492C202.059 18.1903 202.157 18.1511 202.275 18.1119C202.393 18.0922 202.511 18.0726 202.648 18.053C202.786 18.053 202.924 18.0138 203.061 17.9549C203.336 17.8372 203.513 17.6606 203.572 17.4645C203.631 17.2683 203.67 16.9348 203.67 16.5228V11.128C203.67 11.0299 203.67 10.9515 203.67 10.8534C203.67 10.7553 203.67 10.6572 203.67 10.5395C203.67 10.2845 203.631 10.0883 203.552 9.93134C203.474 9.7744 203.316 9.67631 203.081 9.59784C202.786 9.51937 202.55 9.48013 202.354 9.46052C202.157 9.46052 202.059 9.30358 202.059 9.06817C202.059 8.83276 202.098 8.7739 202.197 8.69543C202.295 8.59735 202.432 8.53849 202.609 8.47964C202.786 8.42079 203.002 8.36194 203.238 8.30308C203.474 8.24423 203.749 8.14614 204.043 8.02844C204.456 7.85188 204.79 7.6557 205.085 7.45953C205.36 7.26335 205.615 7.06718 205.811 6.89062C206.008 6.71406 206.185 6.55712 206.342 6.43942C206.479 6.32171 206.637 6.26286 206.774 6.26286C206.99 6.26286 207.108 6.32171 207.147 6.45903C207.187 6.57674 207.206 6.7533 207.206 6.94947V8.16576L207.226 8.10691Z" fill="white"/>
</g>
</svg>
