<svg xmlns="http://www.w3.org/2000/svg" id="Layer_1" data-name="Layer 1" viewBox="23.76 73.93 163.85 67.35"><defs><style>.cls-1,.cls-2{fill:#83703b;}.cls-2{font-size:10.41px;font-family:Copperplate-Light, Copperplate;font-weight:300;letter-spacing:0.12em;}.cls-3{letter-spacing:0.05em;}.cls-4{letter-spacing:0.12em;}</style></defs><path class="cls-1" d="M117.19,91.56v25.08c0,1.55.31,2.21,1,2.61v.31h-5.48v-.31c.66-.4,1-1.06,1-2.61V91.56c0-1.55-.31-2.21-1-2.61V88.6h5.48V89c-.71.4-1,1.06-1,2.61"/><path class="cls-1" d="M146,88.59V89a7.77,7.77,0,0,1,3.45,6.2v25.13l-2.37-3v0L125.54,89.42h-.82v32.11a7.77,7.77,0,0,1-3.45,6.2v.44h7.34v-.44a7.77,7.77,0,0,1-3.45-6.2V96.4l2.38,3v0l21.55,27.85h.82V95.23a7.8,7.8,0,0,1,3.45-6.2v-.44Z"/><path class="cls-1" d="M187.14,128.62h-8.78v-.4c1.48-1.48,1-3.48-.57-7.64l-2.8-7.25H160.84l-1.54,4.34c-1.82,5.19-2.11,8,.29,10.55v.4h-6.73v-.4c2.45-2.57,4.11-5.19,6-10.55L167.4,93.6l-1.88-4.91H170l11.12,29c2.34,5.7,3.82,8,6,10.55Zm-12.32-15.74-7.19-18.66L161,112.88Z"/><path class="cls-1" d="M123.72,81.57l-.25-.09A11.87,11.87,0,0,0,121,81l0,0a8.74,8.74,0,0,0,.7-4.48l0-.26-.27,0a11.29,11.29,0,0,0-2.85.78l-.19.08A6.52,6.52,0,0,0,115.83,74l-.12-.07-.13.06a6.39,6.39,0,0,0-2.91,3.19,2.37,2.37,0,0,0-.32-.15,11.27,11.27,0,0,0-2.84-.78l-.28,0,0,.26a8.73,8.73,0,0,0,.71,4.48,2.49,2.49,0,0,0,.15.28,12.84,12.84,0,0,0-2.6.54l-.26.09.12.23a10,10,0,0,0,2.33,3.14,2.64,2.64,0,0,0-.15.87v1h4.12a2.86,2.86,0,0,0,1.06-.44,2.42,2.42,0,0,0,.77-.88,2.5,2.5,0,0,0,.76.88,2.81,2.81,0,0,0,1.07.44h4.11v-1a2.49,2.49,0,0,0-.21-1,10,10,0,0,0,2.42-3.21Zm-4.91-4.15a11.88,11.88,0,0,1,2.44-.7,8.05,8.05,0,0,1-.67,4,5.74,5.74,0,0,1-2,2.3,5.47,5.47,0,0,1-1.12.62h0c-.25.1-.49.19-.71.26a6,6,0,0,0,1.83-3.23,6.93,6.93,0,0,0,.12-2.3l-.51.07a6.71,6.71,0,0,1-.12,2.16,5.54,5.54,0,0,1-2.35,3.49V80.6c.25-1.35,1.28-2.42,3.07-3.18m-3.12-3A6.33,6.33,0,0,1,118,77.29a5.11,5.11,0,0,0-2.48,2.44,5,5,0,0,0-2.34-2.37,5.94,5.94,0,0,1,2.55-2.92m-6,2.28a11.71,11.71,0,0,1,2.44.7c1.79.76,2.83,1.83,3.07,3.18V84A5.54,5.54,0,0,1,113,80.6a6.71,6.71,0,0,1-.12-2.16l-.51-.06a6.92,6.92,0,0,0,.12,2.3A6.13,6.13,0,0,0,114.34,84a7,7,0,0,1-2-1,5.82,5.82,0,0,1-2-2.3,8.17,8.17,0,0,1-.67-4m-1.79,5.37a11.13,11.13,0,0,1,2.4-.44v0a6.47,6.47,0,0,0,1.73,1.77l.31.19a3.65,3.65,0,0,0-2,.64,2,2,0,0,0-.44.49,9.19,9.19,0,0,1-2-2.63m5.64,4.44H110v-.47a1.77,1.77,0,0,1,.65-1.47,4.18,4.18,0,0,1,2.66-.5,7.31,7.31,0,0,0,1.85.54.34.34,0,0,1,0,.1,2,2,0,0,1-1.63,1.8m7.33,0h-3.54a2,2,0,0,1-1.63-1.8.22.22,0,0,1,0-.08h0a7.86,7.86,0,0,0,1.92-.55,4,4,0,0,1,2.58.5,1.77,1.77,0,0,1,.65,1.47Zm0-2a1.93,1.93,0,0,0-.35-.35,3.63,3.63,0,0,0-2-.64l.32-.19a6.49,6.49,0,0,0,1.85-2,12.24,12.24,0,0,1,2.25.43,9.45,9.45,0,0,1-2.09,2.74"/><path class="cls-1" d="M105,118.23,100,109.29c5.46-1.31,9.56-4.53,9.56-9.85,0-7.41-7.65-10.7-16.12-10.7H82.88v.46c.81.5,1.19,1.28,1.2,3.26v15.2c0,3.54,0,7.09,0,10.64a28.88,28.88,0,0,1-1.32,9c-1.15,3.49-3.07,6.39-6.43,8.1a17.12,17.12,0,0,1-9,1.58c-7-.44-14-6.09-14.49-13.88A15.67,15.67,0,0,1,55.93,112,14.79,14.79,0,0,1,63,107.22l5.07,13.17c1.59,4.15,2.05,6.14.57,7.61v.4h8.75V128c-2.16-2.55-3.64-4.82-6-10.5L60.35,88.65H55.86l1.88,4.88-8.52,24c-1.88,5.34-3.53,8-6,10.5v.4H50V128c-2.38-2.55-2.1-5.33-.28-10.5l1.53-4.32.17-.45L58,94.16,62.9,107l-.18.08a14.87,14.87,0,0,0-7.37,5.27,15.62,15.62,0,0,0-2.77,8.41,14.58,14.58,0,0,0,6.26,13.4,16.6,16.6,0,0,0,12.33,3,19.28,19.28,0,0,0,11-5.08,20,20,0,0,0,6.25-14.29c.12-2.57,0-5.1,0-7.67h5.07c.82,0,1.64-.06,2.46-.11l5.84,10.58c2.14,3.9,3.28,5.94,1.86,7.41v.4h8.42V128C109.92,126,108.18,124.06,105,118.23Zm-11.47-8.6H88.4V89.2h5.08c10.38,0,11.8,5.83,11.8,10.24S103.81,109.63,93.48,109.63Z"/><path class="cls-1" d="M50.93,100.24c0,8-7.44,11.59-18.64,11.59H29.51v12.79c0,2,.4,2.84,1.25,3.35v.4h-7V128c.91-.51,1.31-1.36,1.31-3.35V92.4c0-2.05-.4-2.84-1.31-3.35v-.46h8.58C43.49,88.59,50.93,92.17,50.93,100.24Zm-4.49,0c0-6.7-3.92-11.19-14.15-11.19H29.51v22.33h2.78C42.52,111.38,46.44,106.89,46.44,100.24Z"/><text class="cls-2" transform="translate(85.96 138.78)">INTERNATIONAL</text></svg>